<?xml version="1.0" encoding="utf-8"?>
<!-- Generator: Adobe Illustrator 16.2.1, SVG Export Plug-In . SVG Version: 6.00 Build 0)  -->
<!DOCTYPE svg PUBLIC "-//W3C//DTD SVG 1.1//EN" "http://www.w3.org/Graphics/SVG/1.1/DTD/svg11.dtd">
<svg version="1.1" id="Layer_1" xmlns="http://www.w3.org/2000/svg" xmlns:xlink="http://www.w3.org/1999/xlink" x="0px" y="0px"
	 viewBox="95 170 250 260"  xml:space="preserve">
<path fill="#FFF" d="M299.7,261.48l0.06-1.02c0-25.24-21.17-47.03-51.33-56.53c13.01,12.69,22.13,32.73,24.42,56.5h-0.02
	c0.04,0.35,0.08,0.7,0.11,1.05h-10.02c-2.8-29.06-17.18-52.45-35.58-60.02c7.93,18.09,9.15,51.57,9.42,60.02l-9.41-0.13
	c-1.31-40.94-9.32-60.57-12.82-62.41c-4.69,2.21-13.13,28.3-13.13,72.81v132.94h-9.56V271.75c0-21.32,2.35-53.09,9.94-70.32
	c-0.18,0.07-0.37,0.15-0.55,0.23c-0.39,0.16-0.77,0.33-1.15,0.51c-0.72,0.33-1.42,0.69-2.12,1.07c-0.11,0.05-0.21,0.11-0.31,0.17
	c-0.32,0.17-0.63,0.35-0.94,0.54c-2.6,1.53-5.09,3.38-7.45,5.53c-0.28,0.25-0.57,0.52-0.85,0.78c-0.41,0.39-0.81,0.78-1.21,1.19
	c-0.3,0.3-0.6,0.61-0.9,0.93c-1.52,1.61-2.97,3.34-4.35,5.19c-0.18,0.24-0.36,0.48-0.53,0.72c-1.63,2.24-3.16,4.65-4.58,7.21
	c-0.23,0.41-0.46,0.83-0.68,1.26c-0.08,0.14-0.15,0.29-0.23,0.43c-0.39,0.75-0.77,1.51-1.14,2.28c-0.07,0.14-0.13,0.29-0.2,0.43
	c-0.19,0.39-0.37,0.78-0.55,1.18c-0.22,0.48-0.44,0.97-0.65,1.47c-0.22,0.49-0.43,0.99-0.62,1.49c-0.18,0.41-0.34,0.81-0.49,1.22
	c-0.06,0.15-0.12,0.3-0.18,0.45c-0.33,0.85-0.65,1.72-0.95,2.59c-0.04,0.11-0.08,0.23-0.12,0.35c-0.18,0.52-0.36,1.05-0.53,1.58
	s-0.34,1.06-0.5,1.6c-0.54,1.76-1.03,3.56-1.47,5.4c-0.1,0.4-0.19,0.8-0.28,1.21c-0.1,0.4-0.18,0.79-0.27,1.19
	c-0.07,0.34-0.14,0.68-0.21,1.02c-0.32,1.54-0.6,3.11-0.84,4.69c-0.19,1.17-0.35,2.35-0.49,3.55c-0.08,0.59-0.14,1.19-0.2,1.8
	c-0.03,0.24-0.06,0.49-0.07,0.74c-0.09,0.85-0.16,1.71-0.22,2.57c-0.04,0.51-0.07,1.02-0.1,1.53c-0.03,0.49-0.06,0.98-0.08,1.47
	c-0.01,0.41-0.03,0.81-0.04,1.22c-0.02,0.55-0.03,1.11-0.04,1.66c-0.01,0.62-0.02,1.25-0.02,1.87v132.94h-9.56l-0.01-132.94
	c0-1.9,0.05-3.79,0.14-5.66c0.02-0.49,0.05-0.99,0.08-1.48c0.02-0.35,0.04-0.7,0.07-1.05c0.15-2.22,0.37-4.41,0.66-6.57
	c0.05-0.45,0.11-0.89,0.18-1.33c0.06-0.49,0.13-0.98,0.21-1.46c0.26-1.69,0.56-3.36,0.89-5.01c0.08-0.38,0.16-0.76,0.24-1.14
	c0.09-0.42,0.18-0.83,0.27-1.24c0.6-2.62,1.28-5.18,2.05-7.68c0.16-0.53,0.33-1.06,0.5-1.58c0.16-0.49,0.32-0.98,0.49-1.46
	c0.2-0.6,0.41-1.2,0.63-1.79c0.66-1.82,1.37-3.61,2.13-5.35c0.19-0.45,0.39-0.88,0.59-1.32c0.23-0.52,0.47-1.03,0.71-1.54
	c0.19-0.42,0.39-0.83,0.6-1.24c0.17-0.34,0.33-0.67,0.51-1.01c0.26-0.53,0.54-1.06,0.82-1.58c0.35-0.66,0.71-1.31,1.08-1.95
	c0.29-0.52,0.59-1.03,0.9-1.54c0.17-0.3,0.35-0.59,0.53-0.88c0.61-1,1.24-1.98,1.89-2.93c0.14-0.2,0.27-0.4,0.41-0.6
	c0.3-0.44,0.61-0.87,0.92-1.3c0.02-0.04,0.05-0.08,0.08-0.12c0.41-0.56,0.81-1.11,1.23-1.64c0.42-0.56,0.86-1.11,1.3-1.65
	c0.33-0.41,0.66-0.81,1-1.2c0.06-0.08,0.13-0.16,0.2-0.24c0.33-0.4,0.68-0.79,1.03-1.17c0.02-0.03,0.05-0.06,0.08-0.09
	c0.31-0.35,0.62-0.69,0.95-1.02c0.31-0.35,0.64-0.68,0.97-1.02c0.43-0.44,0.87-0.87,1.31-1.3c-30.72,9.32-52.34,31.29-52.34,56.85
	l-0.06,144.23h-9.51V260.46c0-39.24,42.49-71.17,94.74-71.18h0.01l0.01,0.68l0.01,0.33v-0.49l0.02-0.52c0.11,0,0.22,0,0.33,0.01
	v-0.01c52.03,0.15,94.37,33.02,94.37,72.12L299.7,261.48z"/>
<path fill="#FFF" d="M214.61,189.28v1.01l-0.01-0.33l-0.01-0.68C214.6,189.28,214.6,189.28,214.61,189.28z"/>
<rect x="299.759" y="369.004" fill="#FFF" width="9.567" height="35.688"/>
<polyline fill="none" stroke="#FFF" stroke-width="2" stroke-miterlimit="10" points="268.615,369.004 268.615,399.907 
	273.399,399.907 "/>
<polygon fill="#FFF" points="273.399,404.691 263.881,404.691 263.832,369.004 273.399,369.004 "/>
<polygon fill="#FFF" points="214.61,189.8 214.61,190.29 214.6,189.96 "/>
<polygon fill="#FFF" points="237.57,404.691 228.049,404.691 228.049,369.004 237.617,369.004 "/>
<path fill="none" stroke="#FFF" stroke-width="2" stroke-miterlimit="10" d="M165.676,399.907"/>
<polygon fill="#FFF" points="156.11,404.69 156.1,404.69 156.1,271.75 "/>
<polygon fill="#FFF" points="165.68,404.69 165.67,404.69 165.67,271.75 "/>
</svg>
